<?xml version="1.0" encoding="UTF-8" standalone="no"?>
<!-- Created with Inkscape (http://www.inkscape.org/) -->

<svg
   xmlns:dc="http://purl.org/dc/elements/1.1/"
   xmlns:cc="http://creativecommons.org/ns#"
   xmlns:rdf="http://www.w3.org/1999/02/22-rdf-syntax-ns#"
   xmlns:svg="http://www.w3.org/2000/svg"
   xmlns="http://www.w3.org/2000/svg"
   xmlns:sodipodi="http://sodipodi.sourceforge.net/DTD/sodipodi-0.dtd"
   xmlns:inkscape="http://www.inkscape.org/namespaces/inkscape"
   width="42.333332mm"
   height="55.885818mm"
   viewBox="0 0 42.333332 55.885818"
   version="1.1"
   id="svg2503"
   inkscape:version="0.92.3 (2405546, 2018-03-11)"
   sodipodi:docname="drawing.svg">
  <defs
     id="defs2497">
    <clipPath
       clipPathUnits="userSpaceOnUse"
       id="clipPath666">
      <path
         d="m 63.0596,468.667 h 17.8642 v -31 H 63.0596 Z"
         id="path664"
         inkscape:connector-curvature="0" />
    </clipPath>
    <clipPath
       clipPathUnits="userSpaceOnUse"
       id="clipPath694">
      <path
         d="m 139.581,468.667 h 17.863 v -31 h -17.863 z"
         id="path692"
         inkscape:connector-curvature="0" />
    </clipPath>
  </defs>
  <sodipodi:namedview
     id="base"
     pagecolor="#ffffff"
     bordercolor="#666666"
     borderopacity="1.0"
     inkscape:pageopacity="0.0"
     inkscape:pageshadow="2"
     inkscape:zoom="1.5280136"
     inkscape:cx="-152.01776"
     inkscape:cy="74.953764"
     inkscape:document-units="mm"
     inkscape:current-layer="layer1"
     showgrid="false"
     inkscape:window-width="1920"
     inkscape:window-height="1000"
     inkscape:window-x="0"
     inkscape:window-y="0"
     inkscape:window-maximized="1"
     fit-margin-top="0"
     fit-margin-left="0"
     fit-margin-right="0"
     fit-margin-bottom="0" />
  <metadata
     id="metadata2500">
    <rdf:RDF>
      <cc:Work
         rdf:about="">
        <dc:format>image/svg+xml</dc:format>
        <dc:type
           rdf:resource="http://purl.org/dc/dcmitype/StillImage" />
        <dc:title></dc:title>
      </cc:Work>
    </rdf:RDF>
  </metadata>
  <g
     inkscape:label="Layer 1"
     inkscape:groupmode="layer"
     id="layer1"
     transform="translate(-23.969854,-87.360137)">
    <g
       id="g2420"
       transform="matrix(0.35277777,0,0,-0.35277777,6.3947128,252.69526)">
      <g
         transform="translate(169.8193,315.5)"
         id="g620">
        <path
           inkscape:connector-curvature="0"
           id="path622"
           style="fill:#2f263d;fill-opacity:1;fill-rule:nonzero;stroke:none"
           d="m 0,0 c 0,-2.899 -26.863,-5.25 -60,-5.25 -33.137,0 -60,2.351 -60,5.25 0,2.899 26.863,5.25 60,5.25 C -26.863,5.25 0,2.899 0,0" />
      </g>
      <g
         transform="translate(88.8896,351.0161)"
         id="g624">
        <path
           inkscape:connector-curvature="0"
           id="path626"
           style="fill:#faaf40;fill-opacity:1;fill-rule:nonzero;stroke:none"
           d="m 0,0 0.086,-26.167 c 0,0 -13.183,5.124 -14.645,-6.382 0,0 10.34,-2.132 19.661,1.732 L 4.667,-0.151 Z" />
      </g>
      <g
         transform="translate(88.9287,339.1826)"
         id="g628">
        <path
           inkscape:connector-curvature="0"
           id="path630"
           style="fill:#f6931e;fill-opacity:1;fill-rule:nonzero;stroke:none"
           d="M 0,0 4.794,0.016 4.763,2.183 -0.007,2.167 Z" />
      </g>
      <g
         transform="translate(88.9551,331.2661)"
         id="g632">
        <path
           inkscape:connector-curvature="0"
           id="path634"
           style="fill:#f6931e;fill-opacity:1;fill-rule:nonzero;stroke:none"
           d="M 0,0 4.88,0.016 4.849,2.183 -0.007,2.167 Z" />
      </g>
      <g
         transform="translate(132.0308,351.0161)"
         id="g636">
        <path
           inkscape:connector-curvature="0"
           id="path638"
           style="fill:#faaf40;fill-opacity:1;fill-rule:nonzero;stroke:none"
           d="m 0,0 -0.086,-26.167 c 0,0 13.183,5.124 14.645,-6.382 0,0 -10.34,-2.132 -19.661,1.732 l 0.435,30.666 z" />
      </g>
      <g
         transform="translate(131.9917,339.1826)"
         id="g640">
        <path
           inkscape:connector-curvature="0"
           id="path642"
           style="fill:#f6931e;fill-opacity:1;fill-rule:nonzero;stroke:none"
           d="m 0,0 -4.794,0.016 0.031,2.167 4.77,-0.016 z" />
      </g>
      <g
         transform="translate(131.9653,331.2661)"
         id="g644">
        <path
           inkscape:connector-curvature="0"
           id="path646"
           style="fill:#f6931e;fill-opacity:1;fill-rule:nonzero;stroke:none"
           d="M 0,0 -4.88,0.016 -4.849,2.183 0.007,2.167 Z" />
      </g>
      <g
         transform="translate(72.1108,437.6665)"
         id="g648">
        <path
           inkscape:connector-curvature="0"
           id="path650"
           style="fill:#faaf40;fill-opacity:1;fill-rule:nonzero;stroke:none"
           d="m 0,0 c 0,0 -17.5,11.333 -3.833,31 0,0 4.166,-17.167 18.5,-20.667 0,0 -6,-9.666 -14.667,-10.333" />
      </g>
      <g
         transform="translate(63.2241,456.5444)"
         id="g652">
        <path
           inkscape:connector-curvature="0"
           id="path654"
           style="fill:#f6931e;fill-opacity:1;fill-rule:nonzero;stroke:none"
           d="M 0,0 C 2.528,0.179 5.75,0.867 9.156,2.734 8.796,3.318 8.463,3.896 8.157,4.463 5.272,2.889 2.546,2.244 0.352,2.031 0.193,1.336 0.083,0.663 0,0" />
      </g>
      <g
         transform="translate(64.2686,447.6201)"
         id="g656">
        <path
           inkscape:connector-curvature="0"
           id="path658"
           style="fill:#f6931e;fill-opacity:1;fill-rule:nonzero;stroke:none"
           d="M 0,0 C 0.247,-0.648 0.519,-1.271 0.816,-1.858 4.379,-0.976 9.022,0.975 13.414,5.23 12.909,5.68 12.427,6.144 11.97,6.621 7.746,2.549 3.303,0.769 0,0" />
      </g>
      <g
         id="g660">
        <g
           id="g662" />
        <g
           id="g674">
          <g
             style="opacity:0.5"
             id="g672"
             clip-path="url(#clipPath666)">
            <g
               id="g670"
               transform="translate(72.1108,437.6665)">
              <path
                 inkscape:connector-curvature="0"
                 id="path668"
                 style="fill:#bbbdbf;fill-opacity:1;fill-rule:nonzero;stroke:none"
                 d="M 0,0 C 3.427,0.264 6.426,1.938 8.813,3.862 -9.541,11.117 -3.833,31 -3.833,31 -17.5,11.333 0,0 0,0" />
            </g>
          </g>
        </g>
      </g>
      <g
         transform="translate(148.3936,437.6665)"
         id="g676">
        <path
           inkscape:connector-curvature="0"
           id="path678"
           style="fill:#faaf40;fill-opacity:1;fill-rule:nonzero;stroke:none"
           d="m 0,0 c 0,0 17.5,11.333 3.833,31 0,0 -4.166,-17.167 -18.5,-20.667 0,0 6,-9.666 14.667,-10.333" />
      </g>
      <g
         transform="translate(157.2803,456.5444)"
         id="g680">
        <path
           inkscape:connector-curvature="0"
           id="path682"
           style="fill:#f6931e;fill-opacity:1;fill-rule:nonzero;stroke:none"
           d="m 0,0 c -2.528,0.179 -5.75,0.867 -9.156,2.734 0.36,0.584 0.693,1.162 0.999,1.729 C -5.272,2.889 -2.546,2.244 -0.352,2.031 -0.193,1.336 -0.083,0.663 0,0" />
      </g>
      <g
         transform="translate(156.2358,447.6201)"
         id="g684">
        <path
           inkscape:connector-curvature="0"
           id="path686"
           style="fill:#f6931e;fill-opacity:1;fill-rule:nonzero;stroke:none"
           d="m 0,0 c -0.247,-0.648 -0.519,-1.271 -0.816,-1.858 -3.563,0.882 -8.206,2.833 -12.598,7.088 0.505,0.45 0.987,0.914 1.444,1.391 C -7.746,2.549 -3.303,0.769 0,0" />
      </g>
      <g
         id="g688">
        <g
           id="g690" />
        <g
           id="g702">
          <g
             style="opacity:0.5"
             id="g700"
             clip-path="url(#clipPath694)">
            <g
               id="g698"
               transform="translate(148.3936,437.6665)">
              <path
                 inkscape:connector-curvature="0"
                 id="path696"
                 style="fill:#bbbdbf;fill-opacity:1;fill-rule:nonzero;stroke:none"
                 d="M 0,0 C -3.427,0.264 -6.426,1.938 -8.813,3.862 9.541,11.117 3.833,31 3.833,31 17.5,11.333 0,0 0,0" />
            </g>
          </g>
        </g>
      </g>
      <g
         transform="translate(104.9443,450.75)"
         id="g704">
        <path
           inkscape:connector-curvature="0"
           id="path706"
           style="fill:#ee534f;fill-opacity:1;fill-rule:nonzero;stroke:none"
           d="m 0,0 c 0,0 -3,6.875 -12.75,6.25 l 4.625,-9.125 c 0,0 -7.375,5.5 -19.625,-0.5 0,0 2.875,-1.375 3.75,-3.75 0,0 -11.75,0.75 -18,-11.125 0,0 5.875,1.25 7.125,-2.125 0,0 -12.125,-1.5 -14,-12.5 0,0 5.125,1.75 8.875,0.875 0,0 -8.75,-4.5 -9.375,-13.875 0,0 3.5,2 6.875,1 0,0 -7,-5.5 -7,-13.75 0,0 6.25,1.875 9,-1 0,0 -6.625,-3.375 -6.75,-9.5 0,0 3.375,2 7.375,1.5 0,0 -6.125,-7.5 -4,-20.125 0,0 2.125,4.625 4.625,5.875 0,0 -1.375,-9.25 3.25,-16.5 l 2.5,6.375 c 0,0 0.625,-7.75 10.25,-11.875 l -1.25,9.375 c 0,0 7,-11.625 18,-12.5 l -2.75,7.625 c 0,0 13.75,-12.625 28.125,-0.375 0,0 0.375,-4.25 -3,-7.375 0,0 9.125,-0.375 16.375,11.125 0,0 1.125,-4.625 -0.25,-7.875 0,0 10,3.875 12.375,12 0,0 2.5,-2.625 2,-6.125 0,0 5.875,6.125 2.75,17.375 0,0 3.625,-3.375 3.75,-6.875 0,0 3.875,10.125 -3.875,20.375 0,0 4.125,1 6.375,-2.625 0,0 1.375,7.375 -4.75,10.25 0,0 5.375,3.125 8.625,0.25 0,0 -1.125,8.875 -7.625,13.75 0,0 5.375,2.25 7.625,-1.25 0,0 -1.25,11.875 -7.625,13.25 0,0 5,2.5 7.25,-0.625 0,0 -3.125,12.125 -12.5,12.75 0,0 1.75,4.25 6.25,2.5 0,0 -5.375,10.5 -17.25,10.875 0,0 -2.125,3 0.875,6.625 0,0 -10,4.375 -16.5,-1.125 0,0 0.75,6.875 7.75,8.875 0,0 -14.375,3.125 -20.375,-7 L 5.25,11.625 Z" />
      </g>
      <g
         transform="translate(127.1113,415.6665)"
         id="g708">
        <path
           inkscape:connector-curvature="0"
           id="path710"
           style="fill:#e0323c;fill-opacity:1;fill-rule:nonzero;stroke:none"
           d="m 0,0 c 0,-10.217 -8.283,-18.5 -18.5,-18.5 -10.217,0 -18.5,8.283 -18.5,18.5 0,10.217 8.283,18.5 18.5,18.5 C -8.283,18.5 0,10.217 0,0" />
      </g>
      <g
         transform="translate(99.543,385.605)"
         id="g712">
        <path
           inkscape:connector-curvature="0"
           id="path714"
           style="fill:#ffffff;fill-opacity:1;fill-rule:nonzero;stroke:none"
           d="m 0,0 c 0,0 -0.141,-8.17 4.402,-8.109 4.542,0.061 3.645,7.984 3.645,7.984 z" />
      </g>
      <g
         transform="translate(118.7129,389.9199)"
         id="g716">
        <path
           inkscape:connector-curvature="0"
           id="path718"
           style="fill:#ffffff;fill-opacity:1;fill-rule:nonzero;stroke:none"
           d="M 0,0 C 0,0 3.583,-8.189 8.219,-6.242 13.112,-4.189 8.235,3.882 8.235,3.882 Z" />
      </g>
      <g
         transform="translate(124.4443,418)"
         id="g720">
        <path
           inkscape:connector-curvature="0"
           id="path722"
           style="fill:#ffffff;fill-opacity:1;fill-rule:nonzero;stroke:none"
           d="m 0,0 c 0,-9.665 -7.835,-17.5 -17.5,-17.5 -9.665,0 -17.5,7.835 -17.5,17.5 0,9.665 7.835,17.5 17.5,17.5 C -7.835,17.5 0,9.665 0,0" />
      </g>
      <g
         transform="translate(117.3477,423.5708)"
         id="g724">
        <path
           inkscape:connector-curvature="0"
           id="path726"
           style="fill:#302636;fill-opacity:1;fill-rule:nonzero;stroke:none"
           d="m 0,0 c -0.5,-2.879 -3.006,-5.071 -6.028,-5.071 -3.383,0 -6.125,2.742 -6.125,6.125 0,2.28 1.248,4.265 3.096,5.32 -0.361,0.035 -0.726,0.055 -1.096,0.055 -6.214,0 -11.25,-5.036 -11.25,-11.25 0,-6.213 5.036,-11.25 11.25,-11.25 6.213,0 11.25,5.037 11.25,11.25 C 1.097,-3.093 0.696,-1.462 0,0" />
      </g>
      <g
         transform="translate(92.2407,387.6528)"
         id="g728">
        <path
           inkscape:connector-curvature="0"
           id="path730"
           style="fill:#302636;fill-opacity:1;fill-rule:nonzero;stroke:none"
           d="M 0,0 C 0,0 24.848,-1.766 38.608,11.544 38.608,11.544 26.996,-12.786 0,0" />
      </g>
      <g
         transform="translate(164.1943,391.5)"
         id="g732">
        <path
           inkscape:connector-curvature="0"
           id="path734"
           style="fill:#e0323c;fill-opacity:1;fill-rule:nonzero;stroke:none"
           d="M 0,0 C 0,0 -1.125,8.875 -7.625,13.75 L -6.083,3.5 c -3,4.833 -8.5,6.167 -8.5,6.167 3.833,-8 2.833,-13 2.833,-13 -2,3.833 -4.167,5 -4.167,5 3,-18.667 -2.166,-29.334 -2.166,-29.334 l -2.334,4.834 c -2,-8.334 -5.166,-8.834 -5.166,-8.834 l -0.5,5.167 c -4,-8 -10.667,-10.167 -10.667,-10.167 l 1.5,6 c -11,-9.5 -28.333,-5.5 -28.333,-5.5 0,0 1.268,-0.442 2.892,-1.061 -1.789,0.568 -2.892,1.061 -2.892,1.061 2.972,-3.464 6.3,-4.64 8.645,-5.005 -8.727,-1.327 -20.479,9.839 -20.479,9.839 l 0.667,-7 c -6.833,3.166 -13.833,14 -13.833,14 l -1.667,-6.5 c -4.333,6.5 -3.667,16.666 -3.667,16.666 l -4,-3.333 C -98.583,-8.167 -92,-3.75 -92,-3.75 l -7.25,-0.625 5,10.5 -9.625,-1.75 c 2.833,4.667 6.458,11.458 6.458,11.458 l -4.333,-1.458 c 0,0 -7,-5.5 -7,-13.75 0,0 6.25,1.875 9,-1 0,0 -6.625,-3.375 -6.75,-9.5 0,0 3.375,2 7.375,1.5 0,0 -6.125,-7.5 -4,-20.125 0,0 2.125,4.625 4.625,5.875 0,0 -1.375,-9.25 3.25,-16.5 l 2.5,6.375 c 0,0 0.625,-7.75 10.25,-11.875 l -1.25,9.375 c 0,0 7,-11.625 18,-12.5 l -2.75,7.625 c 0,0 13.75,-12.625 28.125,-0.375 0,0 0.375,-4.25 -3,-7.375 0,0 9.125,-0.375 16.375,11.125 0,0 1.125,-4.625 -0.25,-7.875 0,0 10,3.875 12.375,12 0,0 2.5,-2.625 2,-6.125 0,0 5.875,6.125 2.75,17.375 0,0 3.625,-3.375 3.75,-6.875 0,0 3.875,10.125 -3.875,20.375 0,0 4.125,1 6.375,-2.625 0,0 1.375,7.375 -4.75,10.25 0,0 5.375,3.125 8.625,0.25" />
      </g>
      <g
         transform="translate(146.5898,318.4673)"
         id="g736">
        <path
           inkscape:connector-curvature="0"
           id="path738"
           style="fill:#f6931e;fill-opacity:1;fill-rule:nonzero;stroke:none"
           d="m 0,0 c -1.462,11.505 -14.646,6.382 -14.646,6.382 0,0 -3.781,-1.701 -5.015,-4.65 C -10.34,-2.132 0,0 0,0" />
      </g>
      <g
         transform="translate(93.9917,320.1992)"
         id="g740">
        <path
           inkscape:connector-curvature="0"
           id="path742"
           style="fill:#f6931e;fill-opacity:1;fill-rule:nonzero;stroke:none"
           d="m 0,0 c 0,0 -1.484,2.375 -5.016,4.65 0,0 -13.183,5.123 -14.645,-6.382 0,0 10.34,-2.132 19.661,1.732" />
      </g>
      <g
         transform="translate(74.1113,419.333)"
         id="g744">
        <path
           inkscape:connector-curvature="0"
           id="path746"
           style="fill:#e0323c;fill-opacity:1;fill-rule:nonzero;stroke:none"
           d="m 0,0 c 0,0 -5.167,-4.666 -4,-12.833 l 3.333,3.333 c 0,0 -1.833,-9.167 1.167,-14 0,0 -0.5,11.667 2.667,17.167 0,0 -4.001,-0.5 -5.334,-2.167 0,0 1.167,5.333 2.167,8.5" />
      </g>
      <g
         transform="translate(141.2729,397.9995)"
         id="g748">
        <path
           inkscape:connector-curvature="0"
           id="path750"
           style="fill:#e0323c;fill-opacity:1;fill-rule:nonzero;stroke:none"
           d="M 0,0 C 0,0 5.167,-4.666 4,-12.833 L 0.667,-9.5 c 0,0 1.833,-9.167 -1.167,-14 0,0 0.5,11.667 -2.667,17.167 0,0 4.001,-0.5 5.334,-2.167 C 2.167,-8.5 1,-3.167 0,0" />
      </g>
    </g>
  </g>
</svg>
